<svg class="logo" version="1.1" id="Layer_1" xmlns="http://www.w3.org/2000/svg" xmlns:xlink="http://www.w3.org/1999/xlink" x="0px" y="0px"
            width="100%" viewBox="0 0 874 285" enable-background="new 0 0 874 285" xml:space="preserve">
            <path fill="transparent" opacity="1.000000" stroke="none" 
            d="
            M558.000000,286.000000 
            C372.000031,286.000000 186.500092,286.000000 1.000099,286.000000 
            C1.000066,191.000061 1.000066,96.000137 1.000033,1.000151 
            C292.333191,1.000100 583.666382,1.000100 874.999634,1.000050 
            C874.999756,95.999840 874.999756,190.999680 874.999878,285.999756 
            C769.500000,286.000000 664.000000,286.000000 558.000000,286.000000 
            M711.994507,187.995102 
            C711.994507,187.995102 711.969177,187.937698 711.460266,188.088272 
            C711.276611,188.379532 711.092957,188.670807 710.441956,189.101822 
            C710.144043,189.291733 709.983459,189.562958 709.459961,190.090668 
            C709.279114,190.384216 709.098206,190.677765 708.981323,190.984909 
            C708.981323,190.984909 708.965759,190.921371 708.457581,191.082260 
            C708.279419,191.377869 708.101257,191.673477 707.985352,191.987061 
            C707.985352,191.987061 707.967224,191.924850 707.456177,192.083679 
            C707.271606,192.377853 707.086975,192.672043 706.441406,193.099915 
            C706.147522,193.285324 705.987732,193.551285 705.339600,194.191147 
            C704.865112,195.441376 704.390564,196.691620 703.986145,197.994781 
            C703.986145,197.994781 703.937866,197.921448 703.354309,198.165863 
            C703.213196,198.770554 703.072144,199.375244 702.990967,199.996765 
            C702.990967,199.996765 702.961975,199.941696 702.403748,200.218063 
            C702.332642,200.812469 702.261475,201.406876 702.029297,202.437180 
            C702.029297,202.437180 701.973083,202.898468 701.273071,203.327072 
            C700.850952,208.718872 699.915283,214.129883 700.116150,219.498367 
            C700.504822,229.886688 705.220154,238.460480 714.025696,243.869766 
            C731.836243,254.810791 756.262634,248.354858 763.051636,227.940765 
            C763.815186,225.644882 765.152649,223.246368 762.057617,222.195465 
            C759.634155,221.372589 757.929260,222.188034 756.662842,225.393723 
            C750.405334,241.232590 737.144104,244.798248 722.883850,240.894943 
            C715.648132,238.914413 711.267700,233.438110 708.023926,226.977432 
            C708.023926,226.977432 708.066650,226.955688 708.000977,226.271393 
            C707.681946,225.495880 707.362915,224.720352 706.984314,223.154419 
            C706.922180,222.102188 706.860107,221.049957 706.959473,219.082870 
            C707.331299,214.062500 707.703064,209.042130 708.682312,203.675201 
            C709.468750,201.802353 710.255127,199.929520 711.515198,197.893372 
            C711.612244,197.603912 711.709229,197.314438 712.042114,196.488586 
            C712.374695,196.018677 712.707336,195.548767 713.534790,194.908630 
            C713.709106,194.617798 713.883484,194.326950 714.002930,194.001984 
            C714.002930,194.001984 714.038513,194.055939 714.541992,193.900833 
            C714.723755,193.610336 714.905518,193.319824 715.021057,193.012863 
            C715.021057,193.012863 715.052307,193.073441 715.703552,192.990280 
            C716.500671,192.340469 717.297791,191.690674 718.567627,190.967560 
            C718.567627,190.967560 719.012939,190.793015 719.520081,190.852417 
            C719.704651,190.578125 719.889282,190.303833 720.741150,189.975876 
            C721.181580,189.914917 721.621948,189.853958 722.544800,189.870041 
            C722.855713,189.696304 723.026001,189.431976 723.541931,188.983185 
            C723.541931,188.983185 724.012451,188.828690 724.702820,188.968338 
            C725.500793,188.658279 726.298828,188.348221 727.568420,187.978607 
            C727.568420,187.978607 728.014771,187.815155 728.858093,187.950760 
            C730.562195,187.906265 732.266296,187.861771 734.432129,187.961349 
            C734.432129,187.961349 734.910400,188.033325 735.248047,188.678177 
            C736.834534,189.049622 738.420959,189.421066 740.634583,190.107773 
            C744.083496,193.735474 748.619629,196.843887 750.671204,201.139038 
            C752.664734,205.312744 754.440308,206.758987 759.089722,205.479401 
            C757.616455,195.658112 752.450806,188.290070 743.653992,184.507782 
            C733.286194,180.050049 722.691650,180.363159 712.473816,187.114334 
            C712.295593,187.398087 712.117371,187.681824 711.994507,187.995102 
            M649.988708,56.015549 
            C649.988708,56.015549 649.926636,56.033024 650.078674,56.544640 
            C650.374268,56.721817 650.669800,56.898994 651.113831,57.536316 
            C651.301086,57.829102 651.567505,57.994354 652.017700,58.732479 
            C653.016907,60.418964 654.016052,62.105450 655.666504,63.954712 
            C656.108887,63.916508 656.551331,63.878300 657.752441,63.937637 
            C661.164673,61.742599 660.988525,59.394417 658.024536,56.989197 
            C658.024536,56.989197 658.090210,56.978588 657.994080,56.353558 
            C657.678772,55.879089 657.363464,55.404621 657.012817,54.991131 
            C657.012817,54.991131 657.077148,54.962296 656.923035,54.462753 
            C656.621765,54.360901 656.320435,54.259048 655.375732,53.817444 
            C654.230103,52.363884 653.321350,50.601757 651.898438,49.509308 
            C645.178589,44.349960 633.138977,43.496967 624.916992,49.373730 
            C618.867432,53.697708 616.110413,59.195850 617.158630,66.153389 
            C618.124329,72.563171 622.747559,76.291069 628.910828,78.003433 
            C634.997864,79.694626 641.077209,81.422470 647.202942,82.963287 
            C653.833252,84.631020 658.861511,88.827003 658.949890,93.263145 
            C659.018616,96.718773 654.442322,102.913322 648.316284,104.913445 
            C635.624939,109.057076 624.634705,103.543610 619.276978,90.188782 
            C613.469727,90.515823 612.477478,93.537964 615.925415,99.417076 
            C621.947327,109.685051 636.055786,115.349350 648.896851,111.560913 
            C658.924683,108.602448 664.594543,102.220978 665.055969,94.227837 
            C665.570618,85.314560 661.284241,80.777405 649.617126,77.054520 
            C642.979431,74.936462 636.109863,73.492401 629.581543,71.098938 
            C622.940063,68.664032 621.749329,62.232651 626.458679,56.949318 
            C631.795288,50.962467 640.270142,50.240067 649.091370,55.530571 
            C649.385376,55.713100 649.679382,55.895630 649.988708,56.015549 
            M516.485229,172.102203 
            C516.132812,172.302628 516.039734,172.587677 515.932068,173.564102 
            C515.609436,174.344955 515.286865,175.125824 514.488892,176.090683 
            C514.397217,176.384430 514.305542,176.678177 514.051025,177.444199 
            C514.051025,177.444199 513.979370,177.938629 513.508606,178.107498 
            C513.419189,178.394806 513.329773,178.682114 513.051514,179.698105 
            C504.418488,198.772705 495.785461,217.847305 486.750305,237.810471 
            C483.454803,230.679398 480.672699,224.810287 478.016998,218.884552 
            C469.630127,200.170670 461.246246,181.455185 452.965759,162.694168 
            C451.034851,158.319443 447.359711,160.158356 444.460022,160.316284 
            C443.560913,160.365234 442.134430,163.477249 442.124542,165.193665 
            C441.977661,190.681885 442.048798,216.171265 442.002625,241.660263 
            C441.997803,244.318756 442.035034,246.859985 445.483429,246.869186 
            C448.893433,246.878296 449.018372,244.404922 449.010803,241.711502 
            C448.949982,220.054214 448.978424,198.396683 448.979584,176.739227 
            C448.979645,175.376419 448.979614,174.013611 448.979614,172.650803 
            C451.495300,176.119537 453.101135,179.621918 454.653107,183.148026 
            C459.823181,194.894394 464.892517,206.685928 470.159363,218.388626 
            C473.965729,226.846176 477.862671,235.273544 482.108826,243.513596 
            C482.950043,245.146057 485.613342,246.815811 487.347748,246.727539 
            C488.967346,246.645096 491.115112,244.549347 491.920166,242.822220 
            C498.101257,229.561905 504.035370,216.185944 509.998077,202.824402 
            C514.720093,192.243103 519.373901,181.631393 524.007629,171.009460 
            C524.007629,171.009460 524.028259,171.061188 524.501648,171.008362 
            C524.501648,171.008362 524.963806,171.123810 524.995056,171.759811 
            C525.057007,172.178329 525.118958,172.596832 525.027527,173.939621 
            C525.024475,196.421326 525.002747,218.903091 525.061035,241.384644 
            C525.064819,242.856216 525.680115,244.326218 526.593018,246.083038 
            C527.409851,246.087952 528.226746,246.092880 529.893616,245.939941 
            C530.257324,244.480377 530.934753,243.021561 530.938232,241.561157 
            C531.000366,215.676743 530.985352,189.792130 530.963806,163.907578 
            C530.962769,162.649307 530.748413,161.391205 530.623474,160.024796 
            C526.208374,160.474136 520.843506,157.907364 519.986694,164.986450 
            C519.986694,164.986450 519.957214,164.918350 519.462708,165.079330 
            C519.368347,165.378906 519.274048,165.678497 519.024780,166.425812 
            C519.024780,166.425812 518.952148,166.893967 518.459045,167.070297 
            C518.368835,167.372452 518.278687,167.674606 518.043701,168.431549 
            C518.043701,168.431549 517.954590,168.900452 517.315796,169.192780 
            C517.189087,170.108994 517.062378,171.025223 516.999817,171.994659 
            C516.999817,171.994659 516.948486,171.928680 516.485229,172.102203 
            M17.007343,132.583878 
            C17.004036,137.931366 16.998375,143.278839 16.997850,148.626328 
            C16.996086,166.626419 22.115427,183.368042 29.858021,199.368759 
            C38.220894,216.651337 50.163269,231.302185 65.521851,242.652039 
            C75.008919,249.662903 85.262405,256.226532 96.123444,260.659271 
            C115.690536,268.645264 136.266220,271.838196 157.653046,269.155762 
            C171.354080,267.437347 184.493790,264.218109 196.945786,258.435577 
            C220.426819,247.531250 239.016785,231.022903 252.586670,208.910324 
            C262.704285,192.423294 269.286102,174.580963 270.832764,155.355530 
            C272.424927,135.565002 270.419342,116.013725 263.001617,97.267067 
            C251.614990,68.489838 232.437393,46.437298 205.563019,31.343048 
            C178.631241,16.216558 149.678146,12.609057 119.453949,18.003439 
            C94.645950,22.431145 73.232697,33.780457 55.529629,51.408436 
            C47.389099,59.514439 40.323429,68.979729 34.125088,78.693123 
            C23.900473,94.716095 18.588991,112.658554 17.007343,132.583878 
            M609.350098,207.210236 
            C609.235291,210.190811 609.152100,213.172989 609.000671,216.151703 
            C607.857849,238.625305 630.896912,255.207169 651.537659,246.911484 
            C657.073730,244.686493 661.818359,240.492355 667.009033,237.148911 
            C667.009033,238.296875 667.129700,240.064102 666.981506,241.808502 
            C666.744080,244.604034 667.320312,246.955643 670.598572,246.871719 
            C673.892151,246.787384 674.012939,244.285065 674.006470,241.604752 
            C673.942261,214.970261 673.976379,188.335571 673.967285,161.700928 
            C673.965210,155.613632 673.831238,155.531616 666.789368,156.647675 
            C666.789368,169.215515 666.789368,181.870956 666.789368,194.488953 
            C664.290344,192.157089 662.171204,189.948471 659.817261,188.027466 
            C653.341064,182.742249 645.730103,181.525574 637.628662,181.999786 
            C623.790955,182.809784 612.622681,192.841278 609.350098,207.210236 
            M431.162415,29.296329 
            C432.095428,29.023407 433.051208,28.810766 433.957977,28.468386 
            C444.909851,24.333313 458.472290,29.303452 462.681793,39.264210 
            C463.912292,42.175842 465.042023,45.130047 466.671417,49.196419 
            C467.799988,45.923355 472.635895,48.808926 471.250214,43.064938 
            C465.805298,20.494600 439.760895,14.820726 423.630066,26.010117 
            C412.671783,33.611496 410.939667,54.062492 422.871277,61.113705 
            C427.393677,63.786316 432.662140,65.297607 437.719604,66.940994 
            C446.182465,69.690910 454.963470,71.578163 463.214294,74.832985 
            C472.317749,78.424141 473.264740,91.204521 467.287567,98.174568 
            C460.246765,106.384987 450.793640,106.753021 440.990265,106.059891 
            C430.852631,105.343124 421.209595,98.074188 417.970520,88.426338 
            C417.133209,85.932449 416.328918,83.427483 415.559479,81.080040 
            C413.327667,81.696205 411.807953,82.115784 410.005859,82.613319 
            C410.101318,84.384163 409.852173,86.116173 410.326752,87.619789 
            C418.432861,113.304970 445.725708,118.125175 464.662506,109.005028 
            C474.290314,104.368187 478.340759,95.935555 477.839844,85.721344 
            C477.370361,76.148308 471.435791,69.659958 462.758148,66.538139 
            C454.857208,63.695747 446.493317,62.141769 438.336304,60.009022 
            C432.045258,58.364159 425.236176,57.223145 422.250916,50.435513 
            C419.015900,43.079933 422.051208,34.748817 431.162415,29.296329 
            M811.033081,184.141617 
            C804.679504,182.058517 798.326294,180.889938 791.510925,181.944611 
            C782.278442,183.373337 771.161377,191.400116 769.901794,199.844696 
            C769.148254,204.896896 770.098450,206.104736 775.694275,205.391693 
            C776.612183,196.684143 782.652649,190.523056 792.575073,188.173889 
            C803.991211,185.471085 814.597168,191.740448 816.843140,202.660904 
            C817.402100,205.378845 817.491577,207.923325 813.316528,208.157516 
            C809.280457,208.383911 805.292725,209.408264 801.273743,210.015625 
            C792.583130,211.328964 783.902100,212.552292 776.040039,216.981369 
            C769.504517,220.663071 766.130432,226.143677 767.133057,233.508072 
            C768.055481,240.283264 772.307190,244.894852 778.898499,246.987610 
            C793.697327,251.686371 806.419373,248.709564 816.546753,236.513382 
            C817.803162,245.369705 819.689758,248.025955 825.389893,248.964218 
            C830.530396,249.810394 835.391052,247.015259 837.900085,241.721863 
            C836.014038,239.047424 834.244202,237.192368 830.963074,240.489304 
            C829.835144,241.622711 827.209595,242.119308 825.648254,241.647903 
            C824.710754,241.364838 824.072815,238.656586 824.046326,237.026169 
            C823.894958,227.703888 824.307190,218.362061 823.870911,209.057678 
            C823.411255,199.252594 821.808228,189.683838 811.033081,184.141617 
            M512.840698,106.010971 
            C498.192139,104.164925 488.991241,92.239906 489.503418,81.974808 
            C491.963684,81.974808 494.442719,81.975487 496.921722,81.974693 
            C510.739990,81.970261 524.558350,81.944351 538.376465,81.976837 
            C541.522522,81.984238 544.247131,81.447975 543.792114,77.480278 
            C543.443665,74.441681 542.781616,71.403801 541.918762,68.465523 
            C538.099731,55.460846 529.935608,46.777489 516.129517,45.265812 
            C505.631012,44.116295 496.048157,48.028183 489.591309,56.199924 
            C476.350189,72.957977 480.957703,98.101433 498.136169,107.838417 
            C513.694214,116.656944 532.870117,112.934372 543.532959,99.737259 
            C547.400574,94.950417 547.132202,94.607155 540.783508,92.523537 
            C534.086243,101.416428 525.537048,107.023560 512.840698,106.010971 
            M790.079651,55.677681 
            C787.476929,61.706654 783.722229,67.516510 782.524719,73.812744 
            C780.393372,85.018478 783.689087,95.657959 792.173340,103.320145 
            C802.178467,112.355797 814.414917,115.129623 827.520325,110.891731 
            C835.809448,108.211288 842.521057,103.275589 846.276245,95.126381 
            C842.621216,91.715714 840.948059,92.830498 838.036804,96.142860 
            C830.048523,105.231812 819.537231,108.276031 807.823364,104.847946 
            C796.758118,101.609665 790.565979,93.877541 789.168579,81.959846 
            C804.345215,81.959846 819.307739,81.949203 834.270203,81.963417 
            C845.006042,81.973618 845.685974,81.344849 842.888428,71.170967 
            C840.764099,63.445427 837.925598,55.954861 830.939880,51.010887 
            C816.921997,41.090023 802.206665,44.501278 790.079651,55.677681 
            M546.959412,193.618179 
            C545.531555,196.350143 543.927185,199.005646 542.705444,201.826843 
            C536.267822,216.692810 542.156494,235.140335 554.884094,243.384933 
            C572.464905,254.773361 597.957092,247.561081 603.955933,231.651688 
            C601.541382,228.710068 599.682495,227.199524 596.608154,231.665421 
            C590.732239,240.201065 577.495911,244.644333 567.459351,241.761398 
            C555.801758,238.412857 548.983826,231.757996 547.130371,217.986740 
            C548.805725,217.986740 550.415161,217.987000 552.024597,217.986710 
            C565.509399,217.984253 578.994263,217.981705 592.479065,217.979172 
            C602.503540,217.977295 602.717163,217.937744 600.909546,208.171997 
            C599.108704,198.442841 594.312439,190.396759 585.581360,185.295914 
            C574.905640,179.058945 557.110840,180.574585 546.959412,193.618179 
            M340.979340,249.446869 
            C340.979340,175.724304 340.979340,102.001740 340.979340,28.496111 
            C336.231537,27.186520 334.958130,28.795513 334.962616,32.829750 
            C335.044220,106.456131 335.045746,180.082642 334.978699,253.709045 
            C334.974762,258.008331 336.109314,260.049652 340.978455,258.367401 
            C340.978455,255.719482 340.978455,253.073273 340.979340,249.446869 
            M698.910828,112.558983 
            C706.549377,111.381989 713.454529,108.746719 718.617432,102.647507 
            C719.568665,110.588348 719.568665,110.588348 725.601807,109.324516 
            C725.601807,88.917175 725.601807,68.535675 725.601807,48.278770 
            C723.295776,48.278770 721.359375,48.278770 719.010864,48.278770 
            C719.010864,59.999722 718.866699,71.457207 719.050293,82.909439 
            C719.245239,95.068108 713.433777,102.916245 701.739502,105.547989 
            C690.832581,108.002548 677.833984,103.965431 677.954712,87.929268 
            C678.042480,76.273811 677.971008,64.617165 677.970520,52.961048 
            C677.970459,51.365028 677.970520,49.769005 677.970520,48.270012 
            C675.324097,48.270012 673.381958,48.270012 671.032715,48.270012 
            C671.032715,62.806877 670.927246,77.090401 671.127136,91.369637 
            C671.164429,94.030907 672.104065,96.815163 673.181152,99.302856 
            C677.918640,110.245018 687.273010,112.989433 698.910828,112.558983 
            M566.499756,57.975479 
            C572.305725,51.754559 579.879700,51.010418 587.451538,52.315800 
            C595.714966,53.740421 599.143494,57.859215 599.989197,66.249847 
            C600.699585,73.297058 600.822083,80.413658 600.971558,87.504463 
            C601.128113,94.934441 601.006592,102.370285 601.006592,109.568504 
            C606.425903,110.900375 608.237915,109.290054 608.080627,104.178642 
            C607.742981,93.205292 608.402100,82.192795 607.845276,71.237381 
            C607.405640,62.587139 606.003540,53.858326 597.313416,48.888046 
            C589.978271,44.692722 582.101135,43.525143 574.258484,46.661377 
            C568.927185,48.793320 564.103333,52.194317 558.970947,55.073586 
            C558.970947,53.294769 558.970947,50.886562 558.970947,48.287697 
            C556.821228,48.287697 555.103271,48.287697 553.303955,48.287697 
            C553.303955,68.935745 553.303955,89.316231 553.303955,109.605186 
            C555.663879,109.605186 557.710571,109.605186 559.986084,109.605186 
            C559.986084,97.116096 560.084778,84.980064 559.942932,72.846848 
            C559.875610,67.090546 561.606323,62.284977 566.499756,57.975479 
            M753.883362,46.090576 
            C750.267456,48.150009 746.651550,50.209442 743.080994,52.243061 
            C743.403259,46.727997 739.741577,47.901501 736.384644,48.293373 
            C736.384644,69.099266 736.384644,89.480049 736.384644,109.708908 
            C738.701233,109.708908 740.635925,109.708908 742.977661,109.708908 
            C742.977661,101.003693 742.852417,92.544373 743.018433,84.090775 
            C743.144348,77.682114 743.132996,71.202385 744.105225,64.896515 
            C745.244812,57.505302 751.775391,52.116600 758.408142,51.959595 
            C765.789795,51.784863 768.348877,54.246243 771.105713,63.880600 
            C771.518372,65.322784 772.498291,66.602646 773.210999,67.948586 
            C775.072083,66.933929 776.478821,66.166946 777.801025,65.446091 
            C777.709106,49.657494 763.287964,42.132378 753.883362,46.090576 
            M848.982727,238.372223 
            C848.982727,212.915817 848.984863,187.459396 848.981262,162.002991 
            C848.980347,155.708313 848.971619,155.708313 842.020203,156.412888 
            C842.020203,157.978882 842.020081,159.610214 842.020264,161.241547 
            C842.023010,187.363480 841.994446,213.485504 842.074036,239.607208 
            C842.082520,242.403152 840.558960,246.742630 845.369324,246.793015 
            C850.620117,246.848022 848.582153,242.250900 848.982727,238.372223 
            M684.082520,223.831268 
            C684.389038,229.912506 684.851379,235.991867 684.925049,242.075928 
            C684.954407,244.490570 685.319763,246.693039 687.839844,246.762421 
            C690.743835,246.842361 691.054871,244.482208 691.041565,241.915512 
            C690.947632,223.782669 690.999329,205.649124 690.978516,187.515808 
            C690.977234,186.395721 690.755371,185.275909 690.640320,184.195236 
            C684.232666,183.885681 684.001770,184.102554 683.992310,190.370712 
            C683.989502,192.200119 684.031738,194.029694 684.062439,195.859024 
            C684.214539,204.904388 684.369690,213.949707 684.082520,223.831268 
            M692.972046,169.213348 
            C693.409668,164.908875 691.743042,162.584457 687.143494,163.013046 
            C683.002075,163.398956 682.537537,166.356094 683.174805,169.433014 
            C683.430725,170.668365 685.322021,172.570145 686.265930,172.458084 
            C688.549988,172.186920 690.714600,170.909973 692.972046,169.213348 
            z"/>
            <path fill="white" opacity="1.000000" stroke="none" 
            d="
            M17.007053,132.114075 
            C18.588991,112.658554 23.900473,94.716095 34.125088,78.693123 
            C40.323429,68.979729 47.389099,59.514439 55.529629,51.408436 
            C73.232697,33.780457 94.645950,22.431145 119.453949,18.003439 
            C149.678146,12.609057 178.631241,16.216558 205.563019,31.343048 
            C232.437393,46.437298 251.614990,68.489838 263.001617,97.267067 
            C270.419342,116.013725 272.424927,135.565002 270.832764,155.355530 
            C269.286102,174.580963 262.704285,192.423294 252.586670,208.910324 
            C239.016785,231.022903 220.426819,247.531250 196.945786,258.435577 
            C184.493790,264.218109 171.354080,267.437347 157.653046,269.155762 
            C136.266220,271.838196 115.690536,268.645264 96.123444,260.659271 
            C85.262405,256.226532 75.008919,249.662903 65.521851,242.652039 
            C50.163269,231.302185 38.220894,216.651337 29.858021,199.368759 
            C22.115427,183.368042 16.996086,166.626419 16.997850,148.626328 
            C16.998375,143.278839 17.004036,137.931366 17.007053,132.114075 
            M86.026123,163.574417 
            C87.223854,164.428497 88.397530,165.318893 89.623238,166.130737 
            C97.411537,171.289368 102.752945,171.164444 110.061584,165.424866 
            C113.026512,163.096481 115.809044,160.523056 118.565346,157.944366 
            C125.188126,151.748367 130.443207,151.171783 137.796265,156.399841 
            C140.858551,158.577133 143.313583,161.603577 146.358414,163.811279 
            C156.777832,171.366013 160.663361,172.728958 171.379456,164.155991 
            C174.956985,161.293961 178.494202,158.380859 182.022476,155.458084 
            C186.272186,151.937668 190.841324,151.928085 195.201736,154.836716 
            C198.861359,157.277908 202.299667,160.129669 205.516891,163.140579 
            C215.214050,172.215897 222.746658,172.191406 232.675903,162.802368 
            C233.812943,161.727203 234.466827,160.141098 235.344742,158.791901 
            C234.889359,158.355911 234.433975,157.919922 233.978577,157.483932 
            C232.463440,158.671280 230.875717,159.777634 229.445358,161.059586 
            C222.076004,167.664215 215.898193,167.161621 210.822449,162.433899 
            C207.359940,159.208755 203.606995,156.281128 199.864517,153.374191 
            C194.155167,148.939499 187.866898,147.195999 181.384171,151.334244 
            C177.270065,153.960480 173.580536,157.308868 169.923294,160.582214 
            C161.763290,167.885635 156.557129,167.270416 150.884354,162.404388 
            C148.396576,160.270401 146.031052,157.983643 143.453323,155.966537 
            C132.951675,147.748871 127.744865,146.488693 117.777206,153.759537 
            C114.598915,156.077911 111.814590,158.940369 108.876945,161.583801 
            C102.716194,167.127563 96.661308,167.434464 90.919960,162.385971 
            C88.329025,160.107697 85.798569,157.752808 83.111588,155.593292 
            C77.714462,151.255646 71.969994,146.981247 64.660439,150.127274 
            C60.461994,151.934280 56.845577,155.129730 53.077908,157.853333 
            C52.632954,158.174988 52.526390,159.882339 52.905746,160.215561 
            C53.502266,160.739517 54.892239,161.069977 55.505291,160.716858 
            C56.763565,159.992081 57.688911,158.712265 58.822605,157.744446 
            C65.462944,152.075745 71.352737,151.137573 77.698105,156.285095 
            C80.375092,158.456726 82.921120,160.789780 86.026123,163.574417 
            M161.942612,98.950287 
            C157.677277,99.241547 153.819153,98.539169 150.638382,95.249413 
            C148.360550,92.893509 145.821106,90.760513 143.232956,88.739967 
            C133.012787,80.761131 127.589867,79.756531 117.873703,86.681686 
            C114.536377,89.060349 111.623840,92.051498 108.606178,94.858459 
            C103.376213,99.723274 97.915367,100.461624 92.155281,96.467834 
            C89.059036,94.321045 86.447334,91.484657 83.554276,89.033455 
            C79.013855,85.186516 74.105659,81.424088 67.887627,82.183258 
            C61.156170,83.005127 56.187664,87.286659 52.651398,93.393494 
            C54.694252,93.249336 56.555187,92.641197 57.990860,91.498680 
            C66.136993,85.015900 71.130707,83.862968 78.059692,89.600235 
            C80.717247,91.800713 83.312149,94.083000 85.849213,96.421722 
            C94.358246,104.265480 101.566010,104.979912 109.964508,98.524422 
            C112.953323,96.227074 115.546173,93.417847 118.511200,91.085648 
            C126.600243,84.723038 131.661957,84.007263 138.536423,90.082512 
            C141.247421,92.478333 144.051910,94.772629 146.693466,97.241928 
            C154.163071,104.224419 160.074326,104.877274 168.563416,99.060425 
            C173.921021,95.389305 178.716980,90.833710 184.289963,87.572060 
            C186.679077,86.173798 190.990128,85.912285 193.393921,87.147133 
            C197.961029,89.493286 202.087708,92.968475 205.854675,96.546104 
            C214.733780,104.978958 223.269821,105.156250 231.979294,96.511803 
            C233.328552,95.172600 234.352600,93.505730 235.527039,91.990387 
            C235.056686,91.514130 234.586319,91.037865 234.115952,90.561607 
            C232.674973,91.591850 231.090622,92.470673 229.816513,93.677132 
            C222.094223,100.989464 215.785034,100.941910 208.039703,93.537239 
            C205.305511,90.923317 202.566498,88.242630 199.491638,86.071129 
            C192.004471,80.783607 185.126343,80.858444 177.705551,86.786575 
            C172.714615,90.773598 167.720169,94.756226 161.942612,98.950287 
            M121.076736,122.427322 
            C128.410187,117.269966 133.359421,119.228897 139.104691,123.715652 
            C142.347153,126.247841 145.097244,129.427917 148.411621,131.846909 
            C154.952911,136.621033 161.770844,138.484924 168.993195,132.543716 
            C172.040482,130.036972 174.827835,127.213638 177.882141,124.716202 
            C186.902344,117.340607 191.552124,117.825226 199.804977,124.394943 
            C202.896912,126.856293 205.734207,129.636841 208.697189,132.261017 
            C216.100540,138.817841 229.742050,136.557159 234.556427,127.864075 
            C235.111404,126.861961 234.738281,125.345833 234.838364,123.109879 
            C231.583130,125.751610 229.247101,127.543137 227.028305,129.469681 
            C222.387985,133.498734 217.989044,133.993698 212.942917,130.345123 
            C208.841034,127.379280 205.006058,124.020927 201.214905,120.653992 
            C195.013229,115.146233 186.253906,114.282928 179.552658,118.991364 
            C176.741333,120.966660 174.331757,123.506920 171.689667,125.731117 
            C162.052719,133.843826 158.139130,136.284882 147.231201,125.772263 
            C144.537659,123.176331 141.367859,121.073601 138.409668,118.753479 
            C134.170090,115.428368 129.176224,114.547279 124.639198,116.964294 
            C119.548126,119.676476 114.970230,123.441490 110.424805,127.068901 
            C102.144577,133.676804 97.661995,135.206772 88.371635,126.876076 
            C84.967552,123.823624 81.478065,120.801208 77.706078,118.238174 
            C70.412743,113.282402 56.569263,117.219902 53.017159,125.071976 
            C52.712112,125.746292 52.982262,126.680817 52.985207,127.494461 
            C53.832043,127.332512 54.766544,127.339928 55.500530,126.959984 
            C56.204967,126.595345 56.662678,125.783356 57.295372,125.246368 
            C64.888023,118.802330 71.574936,117.818039 77.869301,122.532990 
            C81.017670,124.891342 83.914383,127.616325 86.746964,130.359253 
            C92.913742,136.330841 102.074318,138.748276 109.238899,132.424896 
            C112.924576,129.171951 116.792130,126.125107 121.076736,122.427322 
            M89.112701,199.635590 
            C97.245346,205.189819 104.783653,203.592682 111.847565,197.608490 
            C113.998840,195.786072 115.818527,193.578232 117.891037,191.655746 
            C124.815125,185.232895 131.910934,184.631241 138.373047,189.983215 
            C141.540833,192.606750 144.592667,195.376251 147.613693,198.169769 
            C153.912933,203.994598 160.892700,204.796524 167.924988,199.971573 
            C171.421539,197.572510 174.587936,194.654785 177.725037,191.776932 
            C184.905182,185.190140 192.062912,184.558823 198.616638,190.185089 
            C201.734131,192.861420 204.757996,195.646851 207.822037,198.385361 
            C215.772812,205.491409 228.571503,203.947311 234.368179,195.061066 
            C235.016983,194.066452 234.804581,192.510056 235.152878,190.096191 
            C232.055710,192.430984 229.956787,193.922928 227.956985,195.537582 
            C221.697647,200.591461 214.975784,200.237228 209.090683,194.623749 
            C206.232376,191.897369 203.392487,189.083145 200.195557,186.796143 
            C195.230499,183.244263 189.459106,180.933975 183.719254,184.117188 
            C178.225922,187.163681 173.244293,191.228577 168.339645,195.217072 
            C161.883026,200.467636 155.174393,200.335251 149.116226,194.668350 
            C145.784973,191.552261 142.268951,188.570251 138.530197,185.967407 
            C132.185440,181.550293 125.729469,181.611542 119.503967,186.053741 
            C116.574921,188.143768 113.973190,190.710999 111.322487,193.169128 
            C104.053543,199.909927 97.948952,201.194366 91.515785,196.722519 
            C88.825974,194.852753 86.795975,192.059998 84.328667,189.839447 
            C73.277565,179.893677 63.395618,180.851639 53.959026,190.622437 
            C53.102798,191.508987 53.222630,193.338226 52.889194,194.729691 
            C53.592175,195.095978 54.295158,195.462280 54.998138,195.828583 
            C56.057129,194.343826 56.830177,192.475815 58.222099,191.437302 
            C66.509361,185.254211 70.437950,184.242264 76.533630,188.978226 
            C80.676414,192.196930 84.590294,195.710266 89.112701,199.635590 
            z"/>
            <path fill="white" opacity="1.000000" stroke="none" 
            d="
            M524.057983,171.033173 
            C519.373901,181.631393 514.720093,192.243103 509.998077,202.824402 
            C504.035370,216.185944 498.101257,229.561905 491.920166,242.822220 
            C491.115112,244.549347 488.967346,246.645096 487.347748,246.727539 
            C485.613342,246.815811 482.950043,245.146057 482.108826,243.513596 
            C477.862671,235.273544 473.965729,226.846176 470.159363,218.388626 
            C464.892517,206.685928 459.823181,194.894394 454.653107,183.148026 
            C453.101135,179.621918 451.495300,176.119537 448.979614,172.650803 
            C448.979614,174.013611 448.979645,175.376419 448.979584,176.739227 
            C448.978424,198.396683 448.949982,220.054214 449.010803,241.711502 
            C449.018372,244.404922 448.893433,246.878296 445.483429,246.869186 
            C442.035034,246.859985 441.997803,244.318756 442.002625,241.660263 
            C442.048798,216.171265 441.977661,190.681885 442.124542,165.193665 
            C442.134430,163.477249 443.560913,160.365234 444.460022,160.316284 
            C447.359711,160.158356 451.034851,158.319443 452.965759,162.694168 
            C461.246246,181.455185 469.630127,200.170670 478.016998,218.884552 
            C480.672699,224.810287 483.454803,230.679398 486.750305,237.810471 
            C495.785461,217.847305 504.418488,198.772705 513.295532,179.181946 
            C513.727478,178.448380 513.874084,178.205978 513.979370,177.938629 
            C513.979370,177.938629 514.051025,177.444199 514.284668,177.050537 
            C514.709961,176.432449 514.858643,176.182388 514.964294,175.906693 
            C515.286865,175.125824 515.609436,174.344955 516.221191,173.111160 
            C516.700745,172.441681 516.846802,172.198502 516.948486,171.928680 
            C516.948486,171.928680 516.999817,171.994659 517.307556,171.979858 
            C518.068481,171.970825 518.521667,171.976608 519.349609,171.982300 
            C521.168945,171.665878 522.613464,171.349518 524.057983,171.033173 
            M516.893127,179.639557 
            C516.874268,179.857346 516.855347,180.075134 516.836426,180.292923 
            C516.959778,180.296890 517.083191,180.300858 517.206543,180.304840 
            C517.199158,180.086029 517.191711,179.867218 516.893127,179.639557 
            M518.526855,175.500748 
            C518.526855,175.500748 518.485718,175.516418 518.526855,175.500748 
            z"/>
            <path fill="white" opacity="1.000000" stroke="none" 
            d="
            M609.629333,206.873718 
            C612.622681,192.841278 623.790955,182.809784 637.628662,181.999786 
            C645.730103,181.525574 653.341064,182.742249 659.817261,188.027466 
            C662.171204,189.948471 664.290344,192.157089 666.789368,194.488953 
            C666.789368,181.870956 666.789368,169.215515 666.789368,156.647675 
            C673.831238,155.531616 673.965210,155.613632 673.967285,161.700928 
            C673.976379,188.335571 673.942261,214.970261 674.006470,241.604752 
            C674.012939,244.285065 673.892151,246.787384 670.598572,246.871719 
            C667.320312,246.955643 666.744080,244.604034 666.981506,241.808502 
            C667.129700,240.064102 667.009033,238.296875 667.009033,237.148911 
            C661.818359,240.492355 657.073730,244.686493 651.537659,246.911484 
            C630.896912,255.207169 607.857849,238.625305 609.000671,216.151703 
            C609.152100,213.172989 609.235291,210.190811 609.629333,206.873718 
            M665.972351,224.092941 
            C665.967529,218.420456 666.988159,212.516220 665.768311,207.118317 
            C661.896362,189.984665 640.724304,182.583359 626.536377,192.722000 
            C618.269226,198.629593 615.738708,206.711838 615.602966,216.204849 
            C615.489197,224.164642 618.048462,231.368057 624.001831,236.300903 
            C637.367981,247.375870 659.985107,243.095139 665.972351,224.092941 
            z"/>
            <path fill="white" opacity="1.000000" stroke="none" 
            d="
            M430.874146,29.558624 
            C422.051208,34.748817 419.015900,43.079933 422.250916,50.435513 
            C425.236176,57.223145 432.045258,58.364159 438.336304,60.009022 
            C446.493317,62.141769 454.857208,63.695747 462.758148,66.538139 
            C471.435791,69.659958 477.370361,76.148308 477.839844,85.721344 
            C478.340759,95.935555 474.290314,104.368187 464.662506,109.005028 
            C445.725708,118.125175 418.432861,113.304970 410.326752,87.619789 
            C409.852173,86.116173 410.101318,84.384163 410.005859,82.613319 
            C411.807953,82.115784 413.327667,81.696205 415.559479,81.080040 
            C416.328918,83.427483 417.133209,85.932449 417.970520,88.426338 
            C421.209595,98.074188 430.852631,105.343124 440.990265,106.059891 
            C450.793640,106.753021 460.246765,106.384987 467.287567,98.174568 
            C473.264740,91.204521 472.317749,78.424141 463.214294,74.832985 
            C454.963470,71.578163 446.182465,69.690910 437.719604,66.940994 
            C432.662140,65.297607 427.393677,63.786316 422.871277,61.113705 
            C410.939667,54.062492 412.671783,33.611496 423.630066,26.010117 
            C439.760895,14.820726 465.805298,20.494600 471.250214,43.064938 
            C472.635895,48.808926 467.799988,45.923355 466.671417,49.196419 
            C465.042023,45.130047 463.912292,42.175842 462.681793,39.264210 
            C458.472290,29.303452 444.909851,24.333313 433.957977,28.468386 
            C433.051208,28.810766 432.095428,29.023407 430.874146,29.558624 
            z"/>
            <path fill="white" opacity="1.000000" stroke="none" 
            d="
            M811.383789,184.308441 
            C821.808228,189.683838 823.411255,199.252594 823.870911,209.057678 
            C824.307190,218.362061 823.894958,227.703888 824.046326,237.026169 
            C824.072815,238.656586 824.710754,241.364838 825.648254,241.647903 
            C827.209595,242.119308 829.835144,241.622711 830.963074,240.489304 
            C834.244202,237.192368 836.014038,239.047424 837.900085,241.721863 
            C835.391052,247.015259 830.530396,249.810394 825.389893,248.964218 
            C819.689758,248.025955 817.803162,245.369705 816.548340,236.518936 
            C806.419373,248.709564 793.697327,251.686371 778.898499,246.987610 
            C772.307190,244.894852 768.055481,240.283264 767.133057,233.508072 
            C766.130432,226.143677 769.504517,220.663071 776.040039,216.981369 
            C783.902100,212.552292 792.583130,211.328964 801.273743,210.015625 
            C805.292725,209.408264 809.280457,208.383911 813.316528,208.157516 
            C817.491577,207.923325 817.402100,205.378845 816.843140,202.660904 
            C814.597168,191.740448 803.991211,185.471085 792.575073,188.173889 
            C782.652649,190.523056 776.612183,196.684143 775.694275,205.391693 
            C770.098450,206.104736 769.148254,204.896896 769.901794,199.844696 
            C771.161377,191.400116 782.278442,183.373337 791.510925,181.944611 
            C798.326294,180.889938 804.679504,182.058517 811.383789,184.308441 
            M786.386230,219.888336 
            C784.974854,220.260117 783.509888,220.496063 782.161438,221.027466 
            C776.620178,223.211105 773.510010,227.494095 774.000244,232.523544 
            C774.529846,237.956558 778.232971,240.347549 783.153870,241.020370 
            C787.191711,241.572433 791.342834,242.278351 795.348633,241.902481 
            C808.557190,240.663025 818.041870,228.767776 816.284790,214.184723 
            C806.510803,215.931610 796.780762,217.670639 786.386230,219.888336 
            z"/>
            <path fill="white" opacity="1.000000" stroke="none" 
            d="
            M513.292725,106.013641 
            C525.537048,107.023560 534.086243,101.416428 540.783508,92.523537 
            C547.132202,94.607155 547.400574,94.950417 543.532959,99.737259 
            C532.870117,112.934372 513.694214,116.656944 498.136169,107.838417 
            C480.957703,98.101433 476.350189,72.957977 489.591309,56.199924 
            C496.048157,48.028183 505.631012,44.116295 516.129517,45.265812 
            C529.935608,46.777489 538.099731,55.460846 541.918762,68.465523 
            C542.781616,71.403801 543.443665,74.441681 543.792114,77.480278 
            C544.247131,81.447975 541.522522,81.984238 538.376465,81.976837 
            C524.558350,81.944351 510.739990,81.970261 496.921722,81.974693 
            C494.442719,81.975487 491.963684,81.974808 489.503418,81.974808 
            C488.991241,92.239906 498.192139,104.164925 513.292725,106.013641 
            M504.219727,53.246372 
            C495.482117,57.725510 490.329224,64.728561 488.968445,74.742416 
            C504.752319,74.742416 520.296936,74.742416 535.820312,74.742416 
            C536.581543,64.287315 528.720764,55.292919 520.874817,53.252663 
            C515.901917,51.959515 510.318176,53.015160 504.219727,53.246372 
            z"/>
            <path fill="white" opacity="1.000000" stroke="none" 
            d="
            M790.281128,55.371506 
            C802.206665,44.501278 816.921997,41.090023 830.939880,51.010887 
            C837.925598,55.954861 840.764099,63.445427 842.888428,71.170967 
            C845.685974,81.344849 845.006042,81.973618 834.270203,81.963417 
            C819.307739,81.949203 804.345215,81.959846 789.168579,81.959846 
            C790.565979,93.877541 796.758118,101.609665 807.823364,104.847946 
            C819.537231,108.276031 830.048523,105.231812 838.036804,96.142860 
            C840.948059,92.830498 842.621216,91.715714 846.276245,95.126381 
            C842.521057,103.275589 835.809448,108.211288 827.520325,110.891731 
            C814.414917,115.129623 802.178467,112.355797 792.173340,103.320145 
            C783.689087,95.657959 780.393372,85.018478 782.524719,73.812744 
            C783.722229,67.516510 787.476929,61.706654 790.281128,55.371506 
            M801.052734,55.424469 
            C793.686768,59.693356 790.476074,66.520180 789.198914,74.720352 
            C805.118896,74.720352 820.973572,74.720352 836.864929,74.720352 
            C834.252258,54.219982 815.761108,47.138180 801.052734,55.424469 
            z"/>
            <path fill="white" opacity="1.000000" stroke="none" 
            d="
            M547.205688,193.348923 
            C557.110840,180.574585 574.905640,179.058945 585.581360,185.295914 
            C594.312439,190.396759 599.108704,198.442841 600.909546,208.171997 
            C602.717163,217.937744 602.503540,217.977295 592.479065,217.979172 
            C578.994263,217.981705 565.509399,217.984253 552.024597,217.986710 
            C550.415161,217.987000 548.805725,217.986740 547.130371,217.986740 
            C548.983826,231.757996 555.801758,238.412857 567.459351,241.761398 
            C577.495911,244.644333 590.732239,240.201065 596.608154,231.665421 
            C599.682495,227.199524 601.541382,228.710068 603.955933,231.651688 
            C597.957092,247.561081 572.464905,254.773361 554.884094,243.384933 
            C542.156494,235.140335 536.267822,216.692810 542.705444,201.826843 
            C543.927185,199.005646 545.531555,196.350143 547.205688,193.348923 
            M549.006226,212.012451 
            C564.275269,212.012451 579.544312,212.012451 595.293152,212.012451 
            C594.761230,210.178360 594.248291,208.981018 594.078247,207.736816 
            C591.824463,191.248993 572.392456,181.850266 556.822449,192.979462 
            C551.364136,196.880997 546.846130,206.436478 549.006226,212.012451 
            z"/>
            <path fill="white" opacity="1.000000" stroke="none" 
            d="
            M340.978882,249.936966 
            C340.978455,253.073273 340.978455,255.719482 340.978455,258.367401 
            C336.109314,260.049652 334.974762,258.008331 334.978699,253.709045 
            C335.045746,180.082642 335.044220,106.456131 334.962616,32.829750 
            C334.958130,28.795513 336.231537,27.186520 340.979340,28.496111 
            C340.979340,102.001740 340.979340,175.724304 340.978882,249.936966 
            z"/>
            <path fill="white" opacity="1.000000" stroke="none" 
            d="
            M698.506470,112.739868 
            C687.273010,112.989433 677.918640,110.245018 673.181152,99.302856 
            C672.104065,96.815163 671.164429,94.030907 671.127136,91.369637 
            C670.927246,77.090401 671.032715,62.806877 671.032715,48.270012 
            C673.381958,48.270012 675.324097,48.270012 677.970520,48.270012 
            C677.970520,49.769005 677.970459,51.365028 677.970520,52.961048 
            C677.971008,64.617165 678.042480,76.273811 677.954712,87.929268 
            C677.833984,103.965431 690.832581,108.002548 701.739502,105.547989 
            C713.433777,102.916245 719.245239,95.068108 719.050293,82.909439 
            C718.866699,71.457207 719.010864,59.999722 719.010864,48.278770 
            C721.359375,48.278770 723.295776,48.278770 725.601807,48.278770 
            C725.601807,68.535675 725.601807,88.917175 725.601807,109.324516 
            C719.568665,110.588348 719.568665,110.588348 718.615479,102.643585 
            C713.454529,108.746719 706.549377,111.381989 698.506470,112.739868 
            z"/>
            <path fill="white" opacity="1.000000" stroke="none" 
            d="
            M566.246704,58.238976 
            C561.606323,62.284977 559.875610,67.090546 559.942932,72.846848 
            C560.084778,84.980064 559.986084,97.116096 559.986084,109.605186 
            C557.710571,109.605186 555.663879,109.605186 553.303955,109.605186 
            C553.303955,89.316231 553.303955,68.935745 553.303955,48.287697 
            C555.103271,48.287697 556.821228,48.287697 558.970947,48.287697 
            C558.970947,50.886562 558.970947,53.294769 558.970947,55.073586 
            C564.103333,52.194317 568.927185,48.793320 574.258484,46.661377 
            C582.101135,43.525143 589.978271,44.692722 597.313416,48.888046 
            C606.003540,53.858326 607.405640,62.587139 607.845276,71.237381 
            C608.402100,82.192795 607.742981,93.205292 608.080627,104.178642 
            C608.237915,109.290054 606.425903,110.900375 601.006592,109.568504 
            C601.006592,102.370285 601.128113,94.934441 600.971558,87.504463 
            C600.822083,80.413658 600.699585,73.297058 599.989197,66.249847 
            C599.143494,57.859215 595.714966,53.740421 587.451538,52.315800 
            C579.879700,51.010418 572.305725,51.754559 566.246704,58.238976 
            z"/>
            <path fill="white" opacity="1.000000" stroke="none" 
            d="
            M651.913086,58.032082 
            C651.567505,57.994354 651.301086,57.829102 650.896362,57.104828 
            C650.462341,56.419670 650.211609,56.206234 649.926636,56.033024 
            C649.926636,56.033024 649.988708,56.015549 649.829712,55.844677 
            C649.411804,55.461498 649.153015,55.249195 648.894165,55.036880 
            C640.270142,50.240067 631.795288,50.962467 626.458679,56.949318 
            C621.749329,62.232651 622.940063,68.664032 629.581543,71.098938 
            C636.109863,73.492401 642.979431,74.936462 649.617126,77.054520 
            C661.284241,80.777405 665.570618,85.314560 665.055969,94.227837 
            C664.594543,102.220978 658.924683,108.602448 648.896851,111.560913 
            C636.055786,115.349350 621.947327,109.685051 615.925415,99.417076 
            C612.477478,93.537964 613.469727,90.515823 619.276978,90.188782 
            C624.634705,103.543610 635.624939,109.057076 648.316284,104.913445 
            C654.442322,102.913322 659.018616,96.718773 658.949890,93.263145 
            C658.861511,88.827003 653.833252,84.631020 647.202942,82.963287 
            C641.077209,81.422470 634.997864,79.694626 628.910828,78.003433 
            C622.747559,76.291069 618.124329,72.563171 617.158630,66.153389 
            C616.110413,59.195850 618.867432,53.697708 624.916992,49.373730 
            C633.138977,43.496967 645.178589,44.349960 651.898438,49.509308 
            C653.321350,50.601757 654.230103,52.363884 655.854004,54.146202 
            C656.556641,54.674088 656.804932,54.836533 657.077148,54.962296 
            C657.077148,54.962296 657.012817,54.991131 657.081482,55.251617 
            C657.463501,56.000935 657.776855,56.489761 658.090210,56.978592 
            C658.090210,56.978588 658.024536,56.989197 658.025635,57.356232 
            C657.682373,59.762207 657.338013,61.801147 656.993713,63.840096 
            C656.551331,63.878300 656.108887,63.916508 655.330933,63.504448 
            C653.967957,61.380150 652.940491,59.706120 651.913086,58.032082 
            z"/>
            <path fill="white" opacity="1.000000" stroke="none" 
            d="
            M754.292419,46.052670 
            C763.287964,42.132378 777.709106,49.657494 777.801025,65.446091 
            C776.478821,66.166946 775.072083,66.933929 773.210999,67.948586 
            C772.498291,66.602646 771.518372,65.322784 771.105713,63.880600 
            C768.348877,54.246243 765.789795,51.784863 758.408142,51.959595 
            C751.775391,52.116600 745.244812,57.505302 744.105225,64.896515 
            C743.132996,71.202385 743.144348,77.682114 743.018433,84.090775 
            C742.852417,92.544373 742.977661,101.003693 742.977661,109.708908 
            C740.635925,109.708908 738.701233,109.708908 736.384644,109.708908 
            C736.384644,89.480049 736.384644,69.099266 736.384644,48.293373 
            C739.741577,47.901501 743.403259,46.727997 743.080994,52.243061 
            C746.651550,50.209442 750.267456,48.150009 754.292419,46.052670 
            z"/>
            <path fill="white" opacity="1.000000" stroke="none" 
            d="
            M848.982544,238.851532 
            C848.582153,242.250900 850.620117,246.848022 845.369324,246.793015 
            C840.558960,246.742630 842.082520,242.403152 842.074036,239.607208 
            C841.994446,213.485504 842.023010,187.363480 842.020264,161.241547 
            C842.020081,159.610214 842.020203,157.978882 842.020203,156.412888 
            C848.971619,155.708313 848.980347,155.708313 848.981262,162.002991 
            C848.984863,187.459396 848.982727,212.915817 848.982544,238.851532 
            z"/>
            <path fill="white" opacity="1.000000" stroke="none" 
            d="
            M708.057861,226.941895 
            C711.267700,233.438110 715.648132,238.914413 722.883850,240.894943 
            C737.144104,244.798248 750.405334,241.232590 756.662842,225.393723 
            C757.929260,222.188034 759.634155,221.372589 762.057617,222.195465 
            C765.152649,223.246368 763.815186,225.644882 763.051636,227.940765 
            C756.262634,248.354858 731.836243,254.810791 714.025696,243.869766 
            C705.220154,238.460480 700.504822,229.886688 700.116150,219.498367 
            C699.915283,214.129883 700.850952,208.718872 701.631836,203.582306 
            C702.079468,210.463837 701.851990,217.117432 702.420410,223.702316 
            C702.633789,226.174988 704.695312,228.488144 705.914307,230.874039 
            C706.425354,230.654694 706.936401,230.435349 707.447449,230.216003 
            C707.650940,229.124634 707.854431,228.033264 708.057861,226.941895 
            z"/>
            <path fill="white" opacity="1.000000" stroke="none" 
            d="
            M719.012939,190.793015 
            C719.012939,190.793015 718.567627,190.967560 717.988525,191.020645 
            C716.623718,191.740295 715.838013,192.406860 715.052307,193.073425 
            C715.052307,193.073441 715.021057,193.012863 714.852356,193.163605 
            C714.428162,193.526352 714.213135,193.773560 714.038513,194.055939 
            C714.038513,194.055939 714.002930,194.001984 713.832642,194.164398 
            C713.412964,194.542755 713.205444,194.793457 713.039978,195.078857 
            C712.707336,195.548767 712.374695,196.018677 711.770752,196.908722 
            C711.308655,197.547455 711.156006,197.790054 711.041565,198.056671 
            C710.255127,199.929520 709.468750,201.802353 708.116272,203.962463 
            C707.035950,204.500031 706.521606,204.750320 705.997925,204.629517 
            C705.003357,203.181229 704.018188,202.104019 703.014526,200.755585 
            C702.984680,200.303467 702.973328,200.122589 702.961975,199.941696 
            C702.961975,199.941696 702.990967,199.996765 703.166260,199.777069 
            C703.540405,199.012070 703.739136,198.466766 703.937866,197.921448 
            C703.937866,197.921448 703.986145,197.994781 704.285095,197.852661 
            C705.043335,196.439636 705.502625,195.168716 705.961914,193.897797 
            C705.987732,193.551285 706.147522,193.285324 706.876648,192.889313 
            C707.530334,192.427414 707.748779,192.176117 707.967224,191.924835 
            C707.967224,191.924850 707.985352,191.987061 708.155334,191.831985 
            C708.578979,191.459091 708.792419,191.207245 708.965759,190.921371 
            C708.965759,190.921371 708.981323,190.984909 709.151062,190.830383 
            C709.575928,190.457718 709.789062,190.204269 709.960266,189.915527 
            C709.983459,189.562958 710.144043,189.291733 710.879272,188.891113 
            C711.574097,188.467926 711.791626,188.220352 711.969177,187.937698 
            C711.969177,187.937698 711.994507,187.995102 712.160034,187.876099 
            C712.573425,187.597504 712.795166,187.407379 712.990662,187.186722 
            C722.691650,180.363159 733.286194,180.050049 743.653992,184.507782 
            C752.450806,188.290070 757.616455,195.658112 759.089722,205.479401 
            C754.440308,206.758987 752.664734,205.312744 750.671204,201.139038 
            C748.619629,196.843887 744.083496,193.735474 740.159546,189.636810 
            C738.093079,188.788345 736.501770,188.410843 734.910400,188.033325 
            C734.910400,188.033325 734.432129,187.961349 733.900818,187.713684 
            C731.584595,187.582413 729.799683,187.698792 728.014771,187.815155 
            C728.014771,187.815155 727.568420,187.978607 727.006104,188.011124 
            C725.633362,188.305328 724.822876,188.567017 724.012451,188.828705 
            C724.012451,188.828690 723.541931,188.983185 723.111816,189.116180 
            C722.439575,189.389771 722.233154,189.571030 722.062378,189.792999 
            C721.621948,189.853958 721.181580,189.914917 720.213257,190.104218 
            C719.435486,190.388428 719.211304,190.575256 719.012939,190.793015 
            z"/>
            <path fill="white" opacity="1.000000" stroke="none" 
            d="
            M524.032837,171.021317 
            C522.613464,171.349518 521.168945,171.665878 519.218872,171.684235 
            C518.460388,170.557632 518.207458,169.729050 517.954590,168.900452 
            C517.954590,168.900452 518.043701,168.431549 518.270874,168.043930 
            C518.693848,167.428650 518.845215,167.174545 518.952148,166.893967 
            C518.952148,166.893967 519.024780,166.425812 519.256714,166.044617 
            C519.679382,165.436783 519.835571,165.188431 519.957214,164.918350 
            C519.957214,164.918350 519.986694,164.986450 520.289062,164.860535 
            C523.230286,163.742447 525.869141,162.750259 528.508057,161.758072 
            C529.005371,164.085114 529.923645,166.410156 529.934692,168.739502 
            C530.042786,191.559097 530.034485,214.379501 529.957520,237.199341 
            C529.947510,240.166489 529.362305,243.131699 529.043579,246.097809 
            C528.226746,246.092880 527.409851,246.087952 526.299438,245.484253 
            C526.003906,223.032547 526.024292,201.179535 525.964355,179.326752 
            C525.958557,177.222260 525.453918,175.119125 525.180908,173.015350 
            C525.118958,172.596832 525.057007,172.178329 524.884277,171.333755 
            C524.493835,170.752167 524.245422,170.803329 524.028259,171.061188 
            C524.028259,171.061188 524.007629,171.009460 524.032837,171.021317 
            z"/>
            <path fill="white" opacity="1.000000" stroke="none" 
            d="
            M684.303162,223.413147 
            C684.369690,213.949707 684.214539,204.904388 684.062439,195.859024 
            C684.031738,194.029694 683.989502,192.200119 683.992310,190.370712 
            C684.001770,184.102554 684.232666,183.885681 690.640320,184.195236 
            C690.755371,185.275909 690.977234,186.395721 690.978516,187.515808 
            C690.999329,205.649124 690.947632,223.782669 691.041565,241.915512 
            C691.054871,244.482208 690.743835,246.842361 687.839844,246.762421 
            C685.319763,246.693039 684.954407,244.490570 684.925049,242.075928 
            C684.851379,235.991867 684.389038,229.912506 684.303162,223.413147 
            z"/>
            <path fill="white" opacity="1.000000" stroke="none" 
            d="
            M703.033020,201.026825 
            C704.018188,202.104019 705.003357,203.181229 705.996094,205.093979 
            C706.268494,210.618927 706.533264,215.308319 706.797974,219.997726 
            C706.860107,221.049957 706.922180,222.102188 706.828491,223.786224 
            C707.137268,225.263916 707.601990,226.109802 708.066650,226.955688 
            C708.066650,226.955688 708.023926,226.977432 708.040894,226.959656 
            C707.854431,228.033264 707.650940,229.124634 707.447449,230.216003 
            C706.936401,230.435349 706.425354,230.654694 705.914307,230.874039 
            C704.695312,228.488144 702.633789,226.174988 702.420410,223.702316 
            C701.851990,217.117432 702.079468,210.463837 701.981812,203.368011 
            C701.973083,202.898468 702.029297,202.437180 702.273315,202.077484 
            C702.719971,201.510406 702.891846,201.280075 703.033020,201.026825 
            z"/>
            <path fill="white" opacity="1.000000" stroke="none" 
            d="
            M529.468628,246.018875 
            C529.362305,243.131699 529.947510,240.166489 529.957520,237.199341 
            C530.034485,214.379501 530.042786,191.559097 529.934692,168.739502 
            C529.923645,166.410156 529.005371,164.085114 528.508057,161.758072 
            C525.869141,162.750259 523.230286,163.742447 520.257874,164.840408 
            C520.843506,157.907364 526.208374,160.474136 530.623474,160.024796 
            C530.748413,161.391205 530.962769,162.649307 530.963806,163.907578 
            C530.985352,189.792130 531.000366,215.676743 530.938232,241.561157 
            C530.934753,243.021561 530.257324,244.480377 529.468628,246.018875 
            z"/>
            <path fill="white" opacity="1.000000" stroke="none" 
            d="
            M692.949707,169.625885 
            C690.714600,170.909973 688.549988,172.186920 686.265930,172.458084 
            C685.322021,172.570145 683.430725,170.668365 683.174805,169.433014 
            C682.537537,166.356094 683.002075,163.398956 687.143494,163.013046 
            C691.743042,162.584457 693.409668,164.908875 692.949707,169.625885 
            z"/>
            <path fill="white" opacity="1.000000" stroke="none" 
            d="
            M525.104248,173.477478 
            C525.453918,175.119125 525.958557,177.222260 525.964355,179.326752 
            C526.024292,201.179535 526.003906,223.032547 526.008423,245.341217 
            C525.680115,244.326218 525.064819,242.856216 525.061035,241.384644 
            C525.002747,218.903091 525.024475,196.421326 525.104248,173.477478 
            z"/>
            <path fill="white" opacity="1.000000" stroke="none" 
            d="
            M706.878723,219.540298 
            C706.533264,215.308319 706.268494,210.618927 706.005493,205.465057 
            C706.521606,204.750320 707.035950,204.500031 707.812561,204.135742 
            C707.703064,209.042130 707.331299,214.062500 706.878723,219.540298 
            z"/>
            <path fill="white" opacity="1.000000" stroke="none" 
            d="
            M657.373047,63.888863 
            C657.338013,61.801147 657.682373,59.762207 658.039185,57.325836 
            C660.988525,59.394417 661.164673,61.742599 657.373047,63.888863 
            z"/>
            <path fill="white" opacity="1.000000" stroke="none" 
            d="
            M651.965393,58.382286 
            C652.940491,59.706120 653.967957,61.380150 655.005310,63.423058 
            C654.016052,62.105450 653.016907,60.418964 651.965393,58.382286 
            z"/>
            <path fill="white" opacity="1.000000" stroke="none" 
            d="
            M735.079224,188.355743 
            C736.501770,188.410843 738.093079,188.788345 739.845947,189.479187 
            C738.420959,189.421066 736.834534,189.049622 735.079224,188.355743 
            z"/>
            <path fill="white" opacity="1.000000" stroke="none" 
            d="
            M705.650757,194.044464 
            C705.502625,195.168716 705.043335,196.439636 704.250000,197.826202 
            C704.390564,196.691620 704.865112,195.441376 705.650757,194.044464 
            z"/>
            <path fill="white" opacity="1.000000" stroke="none" 
            d="
            M728.436401,187.882965 
            C729.799683,187.698792 731.584595,187.582413 733.669922,187.641663 
            C732.266296,187.861771 730.562195,187.906265 728.436401,187.882965 
            z"/>
            <path fill="white" opacity="1.000000" stroke="none" 
            d="
            M708.033813,226.613541 
            C707.601990,226.109802 707.137268,225.263916 706.858276,224.181427 
            C707.362915,224.720352 707.681946,225.495880 708.033813,226.613541 
            z"/>
            <path fill="white" opacity="1.000000" stroke="none" 
            d="
            M715.377930,193.031845 
            C715.838013,192.406860 716.623718,191.740295 717.752197,191.057312 
            C717.297791,191.690674 716.500671,192.340469 715.377930,193.031845 
            z"/>
            <path fill="white" opacity="1.000000" stroke="none" 
            d="
            M517.635193,169.046616 
            C518.207458,169.729050 518.460388,170.557632 518.844055,171.684296 
            C518.521667,171.976608 518.068481,171.970825 517.275513,171.953247 
            C517.062378,171.025223 517.189087,170.108994 517.635193,169.046616 
            z"/>
            <path fill="white" opacity="1.000000" stroke="none" 
            d="
            M724.357666,188.898529 
            C724.822876,188.567017 725.633362,188.305328 726.770264,188.040894 
            C726.298828,188.348221 725.500793,188.658279 724.357666,188.898529 
            z"/>
            <path fill="white" opacity="1.000000" stroke="none" 
            d="
            M658.042114,56.666077 
            C657.776855,56.489761 657.463501,56.000935 657.099182,55.221130 
            C657.363464,55.404621 657.678772,55.879089 658.042114,56.666077 
            z"/>
            <path fill="white" opacity="1.000000" stroke="none" 
            d="
            M703.014526,200.755600 
            C702.891846,201.280075 702.719971,201.510406 702.353882,201.859543 
            C702.261475,201.406876 702.332642,200.812469 702.682861,200.079880 
            C702.973328,200.122589 702.984680,200.303467 703.014526,200.755600 
            z"/>
            <path fill="white" opacity="1.000000" stroke="none" 
            d="
            M703.646118,198.043655 
            C703.739136,198.466766 703.540405,199.012070 703.136353,199.768646 
            C703.072144,199.375244 703.213196,198.770554 703.646118,198.043655 
            z"/>
            <path fill="white" opacity="1.000000" stroke="none" 
            d="
            M650.002686,56.288834 
            C650.211609,56.206234 650.462341,56.419670 650.822144,56.874756 
            C650.669800,56.898994 650.374268,56.721817 650.002686,56.288834 
            z"/>
            <path fill="white" opacity="1.000000" stroke="none" 
            d="
            M648.992798,55.283730 
            C649.153015,55.249195 649.411804,55.461498 649.822021,55.875984 
            C649.679382,55.895630 649.385376,55.713100 648.992798,55.283730 
            z"/>
            <path fill="white" opacity="1.000000" stroke="none" 
            d="
            M711.278381,197.975021 
            C711.156006,197.790054 711.308655,197.547455 711.652832,197.176910 
            C711.709229,197.314438 711.612244,197.603912 711.278381,197.975021 
            z"/>
            <path fill="white" opacity="1.000000" stroke="none" 
            d="
            M657.000122,54.712524 
            C656.804932,54.836533 656.556641,54.674088 656.175781,54.316078 
            C656.320435,54.259048 656.621765,54.360901 657.000122,54.712524 
            z"/>
            <path fill="white" opacity="1.000000" stroke="none" 
            d="
            M713.287354,194.993744 
            C713.205444,194.793457 713.412964,194.542755 713.860107,194.181458 
            C713.883484,194.326950 713.709106,194.617798 713.287354,194.993744 
            z"/>
            <path fill="white" opacity="1.000000" stroke="none" 
            d="
            M719.266479,190.822723 
            C719.211304,190.575256 719.435486,190.388428 719.879639,190.131042 
            C719.889282,190.303833 719.704651,190.578125 719.266479,190.822723 
            z"/>
            <path fill="white" opacity="1.000000" stroke="none" 
            d="
            M714.290283,193.978394 
            C714.213135,193.773560 714.428162,193.526352 714.885498,193.171829 
            C714.905518,193.319824 714.723755,193.610336 714.290283,193.978394 
            z"/>
            <path fill="white" opacity="1.000000" stroke="none" 
            d="
            M707.711670,192.004257 
            C707.748779,192.176117 707.530334,192.427414 707.107178,192.822464 
            C707.086975,192.672043 707.271606,192.377853 707.711670,192.004257 
            z"/>
            <path fill="white" opacity="1.000000" stroke="none" 
            d="
            M708.711670,191.001816 
            C708.792419,191.207245 708.578979,191.459091 708.124268,191.822998 
            C708.101257,191.673477 708.279419,191.377869 708.711670,191.001816 
            z"/>
            <path fill="white" opacity="1.000000" stroke="none" 
            d="
            M524.264954,171.034775 
            C524.245422,170.803329 524.493835,170.752167 524.868652,171.015747 
            C524.963806,171.123810 524.501648,171.008362 524.264954,171.034775 
            z"/>
            <path fill="white" opacity="1.000000" stroke="none" 
            d="
            M709.710083,190.003098 
            C709.789062,190.204269 709.575928,190.457718 709.119019,190.823593 
            C709.098206,190.677765 709.279114,190.384216 709.710083,190.003098 
            z"/>
            <path fill="white" opacity="1.000000" stroke="none" 
            d="
            M722.303589,189.831512 
            C722.233154,189.571030 722.439575,189.389771 722.868652,189.163116 
            C723.026001,189.431976 722.855713,189.696304 722.303589,189.831512 
            z"/>
            <path fill="white" opacity="1.000000" stroke="none" 
            d="
            M711.714722,188.012985 
            C711.791626,188.220352 711.574097,188.467926 711.112915,188.821259 
            C711.092957,188.670807 711.276611,188.379532 711.714722,188.012985 
            z"/>
            <path fill="white" opacity="1.000000" stroke="none" 
            d="
            M712.732239,187.150528 
            C712.795166,187.407379 712.573425,187.597504 712.132324,187.861328 
            C712.117371,187.681824 712.295593,187.398087 712.732239,187.150528 
            z"/>
            <path fill="white" opacity="1.000000" stroke="none" 
            d="
            M519.709961,164.998840 
            C519.835571,165.188431 519.679382,165.436783 519.334229,165.820740 
            C519.274048,165.678497 519.368347,165.378906 519.709961,164.998840 
            z"/>
            <path fill="white" opacity="1.000000" stroke="none" 
            d="
            M518.705566,166.982132 
            C518.845215,167.174545 518.693848,167.428650 518.343262,167.816528 
            C518.278687,167.674606 518.368835,167.372452 518.705566,166.982132 
            z"/>
            <path fill="white" opacity="1.000000" stroke="none" 
            d="
            M513.744019,178.023071 
            C513.874084,178.205978 513.727478,178.448380 513.390015,178.817627 
            C513.329773,178.682114 513.419189,178.394806 513.744019,178.023071 
            z"/>
            <path fill="white" opacity="1.000000" stroke="none" 
            d="
            M514.726562,175.998688 
            C514.858643,176.182388 514.709961,176.432449 514.366089,176.814407 
            C514.305542,176.678177 514.397217,176.384430 514.726562,175.998688 
            z"/>
            <path fill="white" opacity="1.000000" stroke="none" 
            d="
            M516.716858,172.015442 
            C516.846802,172.198502 516.700745,172.441681 516.358215,172.807800 
            C516.039734,172.587677 516.132812,172.302628 516.716858,172.015442 
            z"/>
            <path fill="transparent" opacity="1.000000" stroke="none" 
            d="
            M85.776398,163.311935 
            C82.921120,160.789780 80.375092,158.456726 77.698105,156.285095 
            C71.352737,151.137573 65.462944,152.075745 58.822605,157.744446 
            C57.688911,158.712265 56.763565,159.992081 55.505291,160.716858 
            C54.892239,161.069977 53.502266,160.739517 52.905746,160.215561 
            C52.526390,159.882339 52.632954,158.174988 53.077908,157.853333 
            C56.845577,155.129730 60.461994,151.934280 64.660439,150.127274 
            C71.969994,146.981247 77.714462,151.255646 83.111588,155.593292 
            C85.798569,157.752808 88.329025,160.107697 90.919960,162.385971 
            C96.661308,167.434464 102.716194,167.127563 108.876945,161.583801 
            C111.814590,158.940369 114.598915,156.077911 117.777206,153.759537 
            C127.744865,146.488693 132.951675,147.748871 143.453323,155.966537 
            C146.031052,157.983643 148.396576,160.270401 150.884354,162.404388 
            C156.557129,167.270416 161.763290,167.885635 169.923294,160.582214 
            C173.580536,157.308868 177.270065,153.960480 181.384171,151.334244 
            C187.866898,147.195999 194.155167,148.939499 199.864517,153.374191 
            C203.606995,156.281128 207.359940,159.208755 210.822449,162.433899 
            C215.898193,167.161621 222.076004,167.664215 229.445358,161.059586 
            C230.875717,159.777634 232.463440,158.671280 233.978577,157.483932 
            C234.433975,157.919922 234.889359,158.355911 235.344742,158.791901 
            C234.466827,160.141098 233.812943,161.727203 232.675903,162.802368 
            C222.746658,172.191406 215.214050,172.215897 205.516891,163.140579 
            C202.299667,160.129669 198.861359,157.277908 195.201736,154.836716 
            C190.841324,151.928085 186.272186,151.937668 182.022476,155.458084 
            C178.494202,158.380859 174.956985,161.293961 171.379456,164.155991 
            C160.663361,172.728958 156.777832,171.366013 146.358414,163.811279 
            C143.313583,161.603577 140.858551,158.577133 137.796265,156.399841 
            C130.443207,151.171783 125.188126,151.748367 118.565346,157.944366 
            C115.809044,160.523056 113.026512,163.096481 110.061584,165.424866 
            C102.752945,171.164444 97.411537,171.289368 89.623238,166.130737 
            C88.397530,165.318893 87.223854,164.428497 85.776398,163.311935 
            z"/>
            <path fill="transparent" opacity="1.000000" stroke="none" 
            d="
            M162.334961,98.845551 
            C167.720169,94.756226 172.714615,90.773598 177.705551,86.786575 
            C185.126343,80.858444 192.004471,80.783607 199.491638,86.071129 
            C202.566498,88.242630 205.305511,90.923317 208.039703,93.537239 
            C215.785034,100.941910 222.094223,100.989464 229.816513,93.677132 
            C231.090622,92.470673 232.674973,91.591850 234.115952,90.561607 
            C234.586319,91.037865 235.056686,91.514130 235.527039,91.990387 
            C234.352600,93.505730 233.328552,95.172600 231.979294,96.511803 
            C223.269821,105.156250 214.733780,104.978958 205.854675,96.546104 
            C202.087708,92.968475 197.961029,89.493286 193.393921,87.147133 
            C190.990128,85.912285 186.679077,86.173798 184.289963,87.572060 
            C178.716980,90.833710 173.921021,95.389305 168.563416,99.060425 
            C160.074326,104.877274 154.163071,104.224419 146.693466,97.241928 
            C144.051910,94.772629 141.247421,92.478333 138.536423,90.082512 
            C131.661957,84.007263 126.600243,84.723038 118.511200,91.085648 
            C115.546173,93.417847 112.953323,96.227074 109.964508,98.524422 
            C101.566010,104.979912 94.358246,104.265480 85.849213,96.421722 
            C83.312149,94.083000 80.717247,91.800713 78.059692,89.600235 
            C71.130707,83.862968 66.136993,85.015900 57.990860,91.498680 
            C56.555187,92.641197 54.694252,93.249336 52.651398,93.393494 
            C56.187664,87.286659 61.156170,83.005127 67.887627,82.183258 
            C74.105659,81.424088 79.013855,85.186516 83.554276,89.033455 
            C86.447334,91.484657 89.059036,94.321045 92.155281,96.467834 
            C97.915367,100.461624 103.376213,99.723274 108.606178,94.858459 
            C111.623840,92.051498 114.536377,89.060349 117.873703,86.681686 
            C127.589867,79.756531 133.012787,80.761131 143.232956,88.739967 
            C145.821106,90.760513 148.360550,92.893509 150.638382,95.249413 
            C153.819153,98.539169 157.677277,99.241547 162.334961,98.845551 
            z"/>
            <path fill="transparent" opacity="1.000000" stroke="none" 
            d="
            M120.827118,122.706223 
            C116.792130,126.125107 112.924576,129.171951 109.238899,132.424896 
            C102.074318,138.748276 92.913742,136.330841 86.746964,130.359253 
            C83.914383,127.616325 81.017670,124.891342 77.869301,122.532990 
            C71.574936,117.818039 64.888023,118.802330 57.295372,125.246368 
            C56.662678,125.783356 56.204967,126.595345 55.500530,126.959984 
            C54.766544,127.339928 53.832043,127.332512 52.985207,127.494461 
            C52.982262,126.680817 52.712112,125.746292 53.017159,125.071976 
            C56.569263,117.219902 70.412743,113.282402 77.706078,118.238174 
            C81.478065,120.801208 84.967552,123.823624 88.371635,126.876076 
            C97.661995,135.206772 102.144577,133.676804 110.424805,127.068901 
            C114.970230,123.441490 119.548126,119.676476 124.639198,116.964294 
            C129.176224,114.547279 134.170090,115.428368 138.409668,118.753479 
            C141.367859,121.073601 144.537659,123.176331 147.231201,125.772263 
            C158.139130,136.284882 162.052719,133.843826 171.689667,125.731117 
            C174.331757,123.506920 176.741333,120.966660 179.552658,118.991364 
            C186.253906,114.282928 195.013229,115.146233 201.214905,120.653992 
            C205.006058,124.020927 208.841034,127.379280 212.942917,130.345123 
            C217.989044,133.993698 222.387985,133.498734 227.028305,129.469681 
            C229.247101,127.543137 231.583130,125.751610 234.838364,123.109879 
            C234.738281,125.345833 235.111404,126.861961 234.556427,127.864075 
            C229.742050,136.557159 216.100540,138.817841 208.697189,132.261017 
            C205.734207,129.636841 202.896912,126.856293 199.804977,124.394943 
            C191.552124,117.825226 186.902344,117.340607 177.882141,124.716202 
            C174.827835,127.213638 172.040482,130.036972 168.993195,132.543716 
            C161.770844,138.484924 154.952911,136.621033 148.411621,131.846909 
            C145.097244,129.427917 142.347153,126.247841 139.104691,123.715652 
            C133.359421,119.228897 128.410187,117.269966 120.827118,122.706223 
            z"/>
            <path fill="transparent" opacity="1.000000" stroke="none" 
            d="
            M88.859619,199.363708 
            C84.590294,195.710266 80.676414,192.196930 76.533630,188.978226 
            C70.437950,184.242264 66.509361,185.254211 58.222099,191.437302 
            C56.830177,192.475815 56.057129,194.343826 54.998138,195.828583 
            C54.295158,195.462280 53.592175,195.095978 52.889194,194.729691 
            C53.222630,193.338226 53.102798,191.508987 53.959026,190.622437 
            C63.395618,180.851639 73.277565,179.893677 84.328667,189.839447 
            C86.795975,192.059998 88.825974,194.852753 91.515785,196.722519 
            C97.948952,201.194366 104.053543,199.909927 111.322487,193.169128 
            C113.973190,190.710999 116.574921,188.143768 119.503967,186.053741 
            C125.729469,181.611542 132.185440,181.550293 138.530197,185.967407 
            C142.268951,188.570251 145.784973,191.552261 149.116226,194.668350 
            C155.174393,200.335251 161.883026,200.467636 168.339645,195.217072 
            C173.244293,191.228577 178.225922,187.163681 183.719254,184.117188 
            C189.459106,180.933975 195.230499,183.244263 200.195557,186.796143 
            C203.392487,189.083145 206.232376,191.897369 209.090683,194.623749 
            C214.975784,200.237228 221.697647,200.591461 227.956985,195.537582 
            C229.956787,193.922928 232.055710,192.430984 235.152878,190.096191 
            C234.804581,192.510056 235.016983,194.066452 234.368179,195.061066 
            C228.571503,203.947311 215.772812,205.491409 207.822037,198.385361 
            C204.757996,195.646851 201.734131,192.861420 198.616638,190.185089 
            C192.062912,184.558823 184.905182,185.190140 177.725037,191.776932 
            C174.587936,194.654785 171.421539,197.572510 167.924988,199.971573 
            C160.892700,204.796524 153.912933,203.994598 147.613693,198.169769 
            C144.592667,195.376251 141.540833,192.606750 138.373047,189.983215 
            C131.910934,184.631241 124.815125,185.232895 117.891037,191.655746 
            C115.818527,193.578232 113.998840,195.786072 111.847565,197.608490 
            C104.783653,203.592682 97.245346,205.189819 88.859619,199.363708 
            z"/>
            <path fill="#DD888E" opacity="1.000000" stroke="none" 
            d="
            M517.038696,179.643982 
            C517.191711,179.867218 517.199158,180.086029 517.206543,180.304840 
            C517.083191,180.300858 516.959778,180.296890 516.836426,180.292923 
            C516.855347,180.075134 516.874268,179.857346 517.038696,179.643982 
            z"/>
            <path fill="#DD888E" opacity="1.000000" stroke="none" 
            d="
            M518.506287,175.508575 
            C518.485718,175.516418 518.526855,175.500748 518.506287,175.508575 
            z"/>
            <path fill="transparent" opacity="1.000000" stroke="none" 
            d="
            M665.818909,224.480133 
            C659.985107,243.095139 637.367981,247.375870 624.001831,236.300903 
            C618.048462,231.368057 615.489197,224.164642 615.602966,216.204849 
            C615.738708,206.711838 618.269226,198.629593 626.536377,192.722000 
            C640.724304,182.583359 661.896362,189.984665 665.768311,207.118317 
            C666.988159,212.516220 665.967529,218.420456 665.818909,224.480133 
            z"/>
            <path fill="transparent" opacity="1.000000" stroke="none" 
            d="
            M786.718506,219.649017 
            C796.780762,217.670639 806.510803,215.931610 816.284790,214.184723 
            C818.041870,228.767776 808.557190,240.663025 795.348633,241.902481 
            C791.342834,242.278351 787.191711,241.572433 783.153870,241.020370 
            C778.232971,240.347549 774.529846,237.956558 774.000244,232.523544 
            C773.510010,227.494095 776.620178,223.211105 782.161438,221.027466 
            C783.509888,220.496063 784.974854,220.260117 786.718506,219.649017 
            z"/>
            <path fill="transparent" opacity="1.000000" stroke="none" 
            d="
            M504.614075,53.131889 
            C510.318176,53.015160 515.901917,51.959515 520.874817,53.252663 
            C528.720764,55.292919 536.581543,64.287315 535.820312,74.742416 
            C520.296936,74.742416 504.752319,74.742416 488.968445,74.742416 
            C490.329224,64.728561 495.482117,57.725510 504.614075,53.131889 
            z"/>
            <path fill="transparent" opacity="1.000000" stroke="none" 
            d="
            M801.338013,55.164894 
            C815.761108,47.138180 834.252258,54.219982 836.864929,74.720352 
            C820.973572,74.720352 805.118896,74.720352 789.198914,74.720352 
            C790.476074,66.520180 793.686768,59.693356 801.338013,55.164894 
            z"/>
            <path fill="transparent" opacity="1.000000" stroke="none" 
            d="
            M548.559814,211.988708 
            C546.846130,206.436478 551.364136,196.880997 556.822449,192.979462 
            C572.392456,181.850266 591.824463,191.248993 594.078247,207.736816 
            C594.248291,208.981018 594.761230,210.178360 595.293152,212.012451 
            C579.544312,212.012451 564.275269,212.012451 548.559814,211.988708 
            z"/>
            </svg>